<?xml version="1.0" encoding="UTF-8" standalone="no"?><svg xmlns="http://www.w3.org/2000/svg" xmlns:xlink="http://www.w3.org/1999/xlink"><symbol viewBox="0 0 100 100" id="about" xmlns="http://www.w3.org/2000/svg"><g transform="matrix(.95 0 0 .95 2.5 2.5)"><path d="M40 90H30v10h40V90H60V30H30v10h10z"/><circle cx="50" cy="10" r="10"/></g></symbol><symbol viewBox="0 0 100 100" id="add" xmlns="http://www.w3.org/2000/svg"><title>add</title><path d="M57 43V7H43v36H7v14h36v36h14V57h36V43z"/></symbol><symbol viewBox="0 0 100 100" id="addmedia" xmlns="http://www.w3.org/2000/svg"><g transform="matrix(6.25 0 0 6.25 -3.125 -6477.5)"><path d="M2 1037.4l11 6-11 6zM11 1045.4v2H9v2h2v2h2v-2h2v-2h-2v-2z"/></g></symbol><symbol viewBox="0 0 100 100" id="audio" xmlns="http://www.w3.org/2000/svg"><path d="M78.15 5.947a3.39 3.39 0 0 0-3.65.58L49.33 29.231h-26.1a3.39 3.39 0 0 0-3.391 3.391v34.756a3.391 3.391 0 0 0 3.39 3.391h26.1L74.5 93.472a3.392 3.392 0 0 0 5.663-2.519V9.046a3.39 3.39 0 0 0-2.013-3.099z"/></symbol><symbol viewBox="0 0 100 100" id="back" xmlns="http://www.w3.org/2000/svg"><path fill-rule="evenodd" d="M44.572 44l13.757-13.757-8.485-8.486-27.93 28.352 27.93 28.134 8.485-8.486L44.572 56h33.515V44z"/></symbol><symbol viewBox="0 0 100 100" id="basics" xmlns="http://www.w3.org/2000/svg"><path d="M42.079 68.718l28.858-31.529-5.724-5.907-23.012 25.683-7.088-6.427-6.05 6.05z"/><path d="M11 11v78h78V11H11zm70 70H18V18h63v63z"/></symbol><symbol viewBox="0 0 100 100" id="camera" xmlns="http://www.w3.org/2000/svg"><path d="M85.981 44.132l-17.99 10.98V42.99h-9.864c3.65-1.48 6.231-5.045 6.231-9.23 0-5.502-4.462-9.963-9.966-9.963-5.5 0-9.96 4.46-9.96 9.963 0 4.186 2.58 7.752 6.23 9.23H33.11c5.209-1.801 8.953-6.732 8.953-12.55 0-7.34-5.947-13.288-13.29-13.288-7.333 0-13.282 5.949-13.282 13.289 0 5.816 3.744 10.748 8.95 12.549H14.019v39.857h53.975V70.73l17.99 10.98V44.132z"/></symbol><symbol viewBox="0 0 100 100" id="change" xmlns="http://www.w3.org/2000/svg"><path d="M73.9 7L95 29.558 73.9 52.117l-6.76-7.227 9.56-10.221H6.98V24.448H76.7l-9.56-10.22zM32.86 55.11L23.3 65.331h69.72v10.221H23.3l9.56 10.22L26.1 93 5 70.442l21.1-22.559z" clip-rule="evenodd" fill-rule="evenodd"/></symbol><symbol viewBox="0 0 100 100" id="check" xmlns="http://www.w3.org/2000/svg"><path d="M83.31 17.3L33.82 66.79l-16.447-16.45-7.07 7.071 23.51 23.53L90.382 24.37z"/></symbol><symbol viewBox="0 0 100 100" id="cloud" xmlns="http://www.w3.org/2000/svg"><path d="M79.948 47.116c-1.727-4.888-6.376-8.396-11.855-8.396-2.249 0-4.355.597-6.183 1.631-1.233-9.72-9.516-17.241-19.571-17.241-10.905 0-19.746 8.841-19.746 19.746 0 .244.028.48.037.721-8.451.778-15.071 7.878-15.071 16.533 0 4.861 2.101 9.221 5.43 12.259a14.947 14.947 0 0 0 10.723 4.521h53.729c8.284 0 15-6.716 15-15 0-7.428-5.405-13.579-12.493-14.774z"/></symbol><symbol viewBox="0 0 100 100" id="code" xmlns="http://www.w3.org/2000/svg"><path style="text-indent:0;text-transform:none" d="M19.032 10v80h23.226V79.677H29.355V20.323H42.258V10H24.194zm38.71 0v10.323H70.645v59.354H57.742V90h23.226V10H62.903z" overflow="visible" color="#000"/></symbol><symbol viewBox="0 0 100 100" id="delete" xmlns="http://www.w3.org/2000/svg"><title>delete</title><path d="M16.67 86.945A11.14 10.583 0 0 0 27.78 97.5h44.44a11.14 10.583 0 0 0 11.11-10.554V23.608H16.67v63.336zM88.89 7.782H69.44L63.89 2.5H36.11l-5.55 5.282H11.11v10.554h77.78V7.782z"/></symbol><symbol viewBox="0 0 100 100" id="download" xmlns="http://www.w3.org/2000/svg"><path d="M38 2v42H20l30 30 30-30H62V2H38zM8 86v12h84V86H8z"/></symbol><symbol viewBox="0 0 100 100" id="duplicate" xmlns="http://www.w3.org/2000/svg"><path d="M7 66.613V7h59.65v16.024H22.988v43.59H7zM93 93H33.35V33.386H93z"/></symbol><symbol viewBox="0 0 35 23" id="ease_0" xmlns="http://www.w3.org/2000/svg"><path stroke="#555" stroke-width="1.5" d="M1 20h33M1 3h33"/><path d="M1 20h16.5m0-17H34" fill="none" stroke="#aaa" stroke-width="2"/></symbol><symbol viewBox="0 0 35 23" id="ease_1" xmlns="http://www.w3.org/2000/svg"><path stroke="#555" stroke-width="1.5" d="M1 20h33M1 3h33"/><path d="M1 20L34 3" fill="none" stroke="#aaa" stroke-width="2"/></symbol><symbol viewBox="0 0 35 23" id="ease_10" xmlns="http://www.w3.org/2000/svg"><path stroke="#555" stroke-width="1.5" d="M1 20h33M1 3h33"/><path d="M1 20l3.3-.014 3.3-.204 3.3-.884 3.3-2.38 3.3-5.018 3.3-5.018 3.3-2.38 3.3-.884 3.3-.204L34 3" fill="none" stroke="#aaa" stroke-width="2"/></symbol><symbol viewBox="0 0 35 23" id="ease_11" xmlns="http://www.w3.org/2000/svg"><path stroke="#555" stroke-width="1.5" d="M1 20h33M1 3h33"/><path d="M1 20h3.3l3.3-.005 3.3-.036 3.3-.133 3.3-.357 3.3-.79 3.3-1.536 3.3-2.714 3.3-4.467L34 3" fill="none" stroke="#aaa" stroke-width="2"/></symbol><symbol viewBox="0 0 35 23" id="ease_12" xmlns="http://www.w3.org/2000/svg"><path stroke="#555" stroke-width="1.5" d="M1 20h33M1 3h33"/><path d="M1 20l3.3-6.962 3.3-4.467 3.3-2.714 3.3-1.535 3.3-.79 3.3-.358 3.3-.133 3.3-.036L30.7 3H34" fill="none" stroke="#aaa" stroke-width="2"/></symbol><symbol viewBox="0 0 35 23" id="ease_13" xmlns="http://www.w3.org/2000/svg"><path stroke="#555" stroke-width="1.5" d="M1 20h33M1 3h33"/><path d="M1 20l2.75-.001 2.75-.034 2.75-.23L12 18.88l2.75-2.297L17.5 11.5l2.75-5.084L23 4.119l2.75-.853 2.75-.231 2.75-.034L34 3" fill="none" stroke="#aaa" stroke-width="2"/></symbol><symbol viewBox="0 0 35 23" id="ease_14" xmlns="http://www.w3.org/2000/svg"><path stroke="#555" stroke-width="1.5" d="M1 20h33M1 3h33"/><path d="M1 20l4.125-.327 4.125-.967 4.125-1.571 4.125-2.114 4.125-2.576 4.125-2.94 4.125-3.188L34 3" fill="none" stroke="#aaa" stroke-width="2"/></symbol><symbol viewBox="0 0 35 23" id="ease_15" xmlns="http://www.w3.org/2000/svg"><path stroke="#555" stroke-width="1.5" d="M1 20h33M1 3h33"/><path d="M1 20l4.125-3.317 4.125-3.189 4.125-2.939L17.5 7.98l4.125-2.114 4.125-1.571 4.125-.967L34 3" fill="none" stroke="#aaa" stroke-width="2"/></symbol><symbol viewBox="0 0 35 23" id="ease_16" xmlns="http://www.w3.org/2000/svg"><path stroke="#555" stroke-width="1.5" d="M1 20h33M1 3h33"/><path d="M1 20l3.3-.416 3.3-1.207 3.3-1.88 3.3-2.37 3.3-2.627 3.3-2.627 3.3-2.37 3.3-1.88 3.3-1.207L34 3" fill="none" stroke="#aaa" stroke-width="2"/></symbol><symbol viewBox="0 0 35 23" id="ease_17" xmlns="http://www.w3.org/2000/svg"><path stroke="#555" stroke-width="1.5" d="M1 20h33M1 3h33"/><path d="M1 20l3.3-.033 3.3-.033 3.3-.067 3.3-.133 3.3-.265 3.3-.532 3.3-1.062 3.3-2.125 3.3-4.25L34 3" fill="none" stroke="#aaa" stroke-width="2"/></symbol><symbol viewBox="0 0 35 23" id="ease_18" xmlns="http://www.w3.org/2000/svg"><path stroke="#555" stroke-width="1.5" d="M1 20h33M1 3h33"/><path d="M1 20l3.3-8.5 3.3-4.25 3.3-2.125 3.3-1.063 3.3-.53 3.3-.266 3.3-.133 3.3-.067 3.3-.033L34 3" fill="none" stroke="#aaa" stroke-width="2"/></symbol><symbol viewBox="0 0 35 23" id="ease_19" xmlns="http://www.w3.org/2000/svg"><path stroke="#555" stroke-width="1.5" d="M1 20h33M1 3h33"/><path d="M1 20l2.357-.022 2.357-.038 2.357-.102 2.358-.274 2.357-.737 2.357-1.985L17.5 11.5l2.357-5.342 2.357-1.985 2.357-.737 2.358-.274 2.357-.102 2.357-.038L34 3" fill="none" stroke="#aaa" stroke-width="2"/></symbol><symbol viewBox="0 0 35 23" id="ease_2" xmlns="http://www.w3.org/2000/svg"><path stroke="#555" stroke-width="1.5" d="M1 20h33M1 3h33"/><path d="M1 20l4.125-.266 4.125-.797 4.125-1.328L17.5 15.75l4.125-2.39 4.125-2.922 4.125-3.454L34 3" fill="none" stroke="#aaa" stroke-width="2"/></symbol><symbol viewBox="0 0 35 23" id="ease_20" xmlns="http://www.w3.org/2000/svg"><path stroke="#555" stroke-width="1.5" d="M1 20h33M1 3h33"/><path d="M1 20l2.357-.043 2.357-.131 2.357-.22 2.358-.315 2.357-.412 2.357-.52 2.357-.637 2.357-.77 2.357-.93 2.357-1.124 2.358-1.382 2.357-1.76 2.357-2.446L34 3" fill="none" stroke="#aaa" stroke-width="2"/></symbol><symbol viewBox="0 0 35 23" id="ease_21" xmlns="http://www.w3.org/2000/svg"><path stroke="#555" stroke-width="1.5" d="M1 20h33M1 3h33"/><path d="M1 20l2.357-6.31 2.357-2.446 2.357-1.76 2.358-1.382 2.357-1.124 2.357-.93 2.357-.77 2.357-.638 2.357-.519 2.357-.412 2.358-.314 2.357-.22 2.357-.132L34 3" fill="none" stroke="#aaa" stroke-width="2"/></symbol><symbol viewBox="0 0 35 23" id="ease_22" xmlns="http://www.w3.org/2000/svg"><path stroke="#555" stroke-width="1.5" d="M1 20h33M1 3h33"/><path d="M1 20l1.65-.043 1.65-.129 1.65-.22 1.65-.318 1.65-.429 1.65-.561 1.65-.73 1.65-.97 1.65-1.395L17.5 11.5l1.65-3.705L20.8 6.4l1.65-.97 1.65-.73 1.65-.561 1.65-.43 1.65-.317 1.65-.22 1.65-.13L34 3" fill="none" stroke="#aaa" stroke-width="2"/></symbol><symbol viewBox="0 0 35 23" id="ease_23" xmlns="http://www.w3.org/2000/svg"><path stroke="#555" stroke-width="1.5" d="M1 18h33M1 5h33"/><path d="M1 18l1.5.013 1.5-.01 1.5-.02 1.5-.026 1.5-.013 1.5.021 1.5.067 1.5.1 1.5.082 1.5-.02L17.5 18l1.5-.365 1.5-.39 1.5-.124 1.5.475 1.5 1.22 1.5 1.631 1.5 1.09 1.5-.806 1.5-3.716 1.5-6.185L34 5" fill="none" stroke="#aaa" stroke-width="2"/></symbol><symbol viewBox="0 0 35 23" id="ease_24" xmlns="http://www.w3.org/2000/svg"><path stroke="#555" stroke-width="1.5" d="M1 18h33M1 5h33"/><path d="M1 18l1.5-5.83L4 5.985 5.5 2.27 7 1.463l1.5 1.09L10 4.184l1.5 1.22 1.5.475 1.5-.124 1.5-.39L17.5 5l1.5-.194 1.5-.02 1.5.081 1.5.1 1.5.068 1.5.02 1.5-.012 1.5-.025 1.5-.021 1.5-.01L34 5" fill="none" stroke="#aaa" stroke-width="2"/></symbol><symbol viewBox="0 0 35 23" id="ease_25" xmlns="http://www.w3.org/2000/svg"><path stroke="#555" stroke-width="1.5" d="M1 18h33M1 5h33"/><path d="M1 18l1.1.005 1.1-.013 1.1-.017 1.1.005 1.1.052 1.1.07 1.1-.021 1.1-.209 1.1-.278 1.1.084 1.1.834 1.1 1.113 1.1-.335 1.1-3.337 1.1-4.453 1.1-4.453 1.1-3.337 1.1-.335 1.1 1.113 1.1.834 1.1.084 1.1-.278 1.1-.209 1.1-.02 1.1.069 1.1.052 1.1.005 1.1-.017 1.1-.013L34 5" fill="none" stroke="#aaa" stroke-width="2"/></symbol><symbol viewBox="0 0 35 23" id="ease_26" xmlns="http://www.w3.org/2000/svg"><path stroke="#555" stroke-width="1.5" d="M1 20h33M1 3h33"/><path d="M1 20l4.125.362 4.125.728 4.125.556 4.125-.155 4.125-1.404 4.125-3.191 4.125-5.516L34 3" fill="none" stroke="#aaa" stroke-width="2"/></symbol><symbol viewBox="0 0 35 23" id="ease_27" xmlns="http://www.w3.org/2000/svg"><path stroke="#555" stroke-width="1.5" d="M1 20h33M1 3h33"/><path d="M1 20l4.125-8.38L9.25 6.104l4.125-3.19L17.5 1.508l4.125-.155 4.125.556 4.125.728L34 3" fill="none" stroke="#aaa" stroke-width="2"/></symbol><symbol viewBox="0 0 35 23" id="ease_28" xmlns="http://www.w3.org/2000/svg"><path stroke="#555" stroke-width="1.5" d="M1 20h33M1 3h33"/><path d="M1 20l2.357.361 2.357.727 2.357.558 2.358-.145 2.357-1.383 2.357-3.156L17.5 11.5l2.357-5.462 2.357-3.156L24.571 1.5l2.358-.145 2.357.558 2.357.727L34 3" fill="none" stroke="#aaa" stroke-width="2"/></symbol><symbol viewBox="0 0 35 23" id="ease_29" xmlns="http://www.w3.org/2000/svg"><path stroke="#555" stroke-width="1.5" d="M1 20h33M1 3h33"/><path d="M1 20l1.5-.266L4 20l1.5-.797 1.5-.265 1.5.265L10 20l1.5-1.86 1.5-1.328 1.5-.796 1.5-.266 1.5.266 1.5.797 1.5 1.328L22 20l1.5-3.984 1.5-3.453 1.5-2.922L28 7.25l1.5-1.86L31 4.064l1.5-.797L34 3" fill="none" stroke="#aaa" stroke-width="2"/></symbol><symbol viewBox="0 0 35 23" id="ease_3" xmlns="http://www.w3.org/2000/svg"><path stroke="#555" stroke-width="1.5" d="M1 20h33M1 3h33"/><path d="M1 20l4.125-3.984 4.125-3.453 4.125-2.922L17.5 7.25l4.125-1.86 4.125-1.327 4.125-.797L34 3" fill="none" stroke="#aaa" stroke-width="2"/></symbol><symbol viewBox="0 0 35 23" id="ease_30" xmlns="http://www.w3.org/2000/svg"><path stroke="#555" stroke-width="1.5" d="M1 20h33M1 3h33"/><path d="M1 20l1.5-.266 1.5-.797 1.5-1.328L7 15.75l1.5-2.39 1.5-2.922 1.5-3.454L13 3l1.5 1.86L16 6.186l1.5.797 1.5.266 1.5-.266 1.5-.796 1.5-1.329L25 3l1.5.797 1.5.265 1.5-.265L31 3l1.5.266L34 3" fill="none" stroke="#aaa" stroke-width="2"/></symbol><symbol viewBox="0 0 35 23" id="ease_31" xmlns="http://www.w3.org/2000/svg"><path stroke="#555" stroke-width="1.5" d="M1 20h33M1 3h33"/><path d="M1 20l1.179-.09 1.178-.344 1.179-.03 1.178.171 1.179-1.222 1.178-.567 1.179.09 1.179.745 1.178.946 1.179-2.952 1.178-2.295 1.179-1.64 1.178-.984L17.5 11.5l1.179-.328 1.178-.984 1.179-1.64 1.178-2.295L23.393 3.3l1.178.946 1.179.745 1.179.09 1.178-.567 1.179-1.222 1.178.17 1.179-.03 1.178-.344L34 3" fill="none" stroke="#aaa" stroke-width="2"/></symbol><symbol viewBox="0 0 35 23" id="ease_32" xmlns="http://www.w3.org/2000/svg"><path stroke="#555" stroke-width="1.5" d="M1 20h33M1 3h33"/><path d="M1 20l2.357-3.147 2.357-2.255 2.357-1.512 2.358-.917 2.357-.471 2.357-.173L17.5 11.5l2.357-.025 2.357-.173 2.357-.471 2.358-.917 2.357-1.512 2.357-2.255L34 3" fill="none" stroke="#aaa" stroke-width="2"/></symbol><symbol viewBox="0 0 35 23" id="ease_4" xmlns="http://www.w3.org/2000/svg"><path stroke="#555" stroke-width="1.5" d="M1 20h33M1 3h33"/><path d="M1 20l3.3-.34 3.3-1.02 3.3-1.7 3.3-2.38 3.3-3.06 3.3-3.06 3.3-2.38 3.3-1.7 3.3-1.02L34 3" fill="none" stroke="#aaa" stroke-width="2"/></symbol><symbol viewBox="0 0 35 23" id="ease_5" xmlns="http://www.w3.org/2000/svg"><path stroke="#555" stroke-width="1.5" d="M1 20h33M1 3h33"/><path d="M1 20l4.125-.033 4.125-.233 4.125-.63 4.125-1.229 4.125-2.025 4.125-3.022 4.125-4.217L34 3" fill="none" stroke="#aaa" stroke-width="2"/></symbol><symbol viewBox="0 0 35 23" id="ease_6" xmlns="http://www.w3.org/2000/svg"><path stroke="#555" stroke-width="1.5" d="M1 20h33M1 3h33"/><path d="M1 20l4.125-5.611 4.125-4.217 4.125-3.022L17.5 5.125l4.125-1.229 4.125-.63 4.125-.233L34 3" fill="none" stroke="#aaa" stroke-width="2"/></symbol><symbol viewBox="0 0 35 23" id="ease_7" xmlns="http://www.w3.org/2000/svg"><path stroke="#555" stroke-width="1.5" d="M1 20h33M1 3h33"/><path d="M1 20l2.75-.04 2.75-.275 2.75-.747L12 17.48l2.75-2.4L17.5 11.5l2.75-3.581 2.75-2.4 2.75-1.457 2.75-.747 2.75-.276L34 3" fill="none" stroke="#aaa" stroke-width="2"/></symbol><symbol viewBox="0 0 35 23" id="ease_8" xmlns="http://www.w3.org/2000/svg"><path stroke="#555" stroke-width="1.5" d="M1 20h33M1 3h33"/><path d="M1 20l4.125-.004 4.125-.062 4.125-.27 4.125-.727 4.125-1.531 4.125-2.785 4.125-4.586L34 3" fill="none" stroke="#aaa" stroke-width="2"/></symbol><symbol viewBox="0 0 35 23" id="ease_9" xmlns="http://www.w3.org/2000/svg"><path stroke="#555" stroke-width="1.5" d="M1 20h33M1 3h33"/><path d="M1 20l4.125-7.035L9.25 8.38l4.125-2.785L17.5 4.062l4.125-.726 4.125-.27 4.125-.062L34 3" fill="none" stroke="#aaa" stroke-width="2"/></symbol><symbol viewBox="0 0 100 100" id="edit" xmlns="http://www.w3.org/2000/svg"><path style="marker:none" d="M72.973 7.5L14.894 65.578l19.527 19.527L92.5 27.027 72.973 7.5zm-60.34 62.35L7.5 92.5l22.65-5.133L12.633 69.85z" color="#000" overflow="visible" stroke-width="4" stroke-linecap="round" stroke-linejoin="round"/></symbol><symbol viewBox="0 0 100 100" id="edit2" xmlns="http://www.w3.org/2000/svg"><g transform="scale(1.5625)"><path d="M36.243 17.858L10.08 44.021a.997.997 0 0 0-.293.707v8.484a1 1 0 0 0 1 1h8.485c.265 0 .52-.105.707-.293l26.164-26.163-9.9-9.898zM53.92 18.565l-8.484-8.485a.997.997 0 0 0-1.414 0l-6.364 6.364 9.899 9.898 6.363-6.363a.999.999 0 0 0 0-1.414z"/></g></symbol><symbol viewBox="0 0 100 100" id="ellipsis" xmlns="http://www.w3.org/2000/svg"><path style="line-height:normal;text-indent:0;text-align:start;text-decoration-line:none;text-decoration-style:solid;text-decoration-color:#000;text-transform:none;isolation:auto;mix-blend-mode:normal;marker:none" d="M13.988 38C7.396 38 2 43.408 2 50s5.396 12 11.988 12S26 56.592 26 50s-5.42-12-12.012-12zM50 38c-6.592 0-12 5.408-12 12s5.408 12 12 12 12-5.408 12-12-5.408-12-12-12zm36 0c-6.592 0-12 5.408-12 12s5.408 12 12 12 12-5.408 12-12-5.408-12-12-12z" color="#000" font-weight="400" font-family="sans-serif" white-space="normal" overflow="visible"/></symbol><symbol viewBox="0 0 100 100" id="end" xmlns="http://www.w3.org/2000/svg"><g transform="matrix(5 0 0 4.72222 -30 -25.556)"><path d="M22.282 22.776h-2.544V9.223h2.544zM19.725 16.06L9.718 22.775V9.343z"/></g></symbol><symbol viewBox="0 0 100 100" id="error" xmlns="http://www.w3.org/2000/svg"><path d="M50 10L3.812 90h92.376zm3.695 70.615h-7.39v-7.39h7.39zm-7.39-14.468v-30.85h7.39v30.85z"/></symbol><symbol viewBox="0 0 100 100" id="export" xmlns="http://www.w3.org/2000/svg"><g transform="translate(5 5) scale(5.625)"><path d="M0 6v10h16V6h-2v8H2V6H0z"/><path d="M9 10V4h2L8 0 5 4h2v6z"/></g></symbol><symbol viewBox="0 0 100 100" id="eyedropper" xmlns="http://www.w3.org/2000/svg"><path d="M87.6 18.2l-5.793-5.793a8.197 8.197 0 0 0-11.588-.002l-6.982 6.982-3.981-3.982a2.41 2.41 0 0 0-3.407 0l-7.666 7.664c-.94.94-.94 2.467-.001 3.408l4.154 4.154-34.922 34.915c-.47.47-.857 1.39-.863 2.056l-.088 8.915-5.011 5.009a4.964 4.964 0 0 0 0 7.016 4.95 4.95 0 0 0 3.51 1.451c1.27 0 2.537-.48 3.507-1.45l5.01-5.01 8.917-.086c.666-.006 1.585-.392 2.056-.863l34.922-34.915 4.151 4.153a2.408 2.408 0 0 0 3.407 0l7.666-7.665a2.41 2.41 0 0 0 0-3.408l-3.983-3.981 6.984-6.983a8.19 8.19 0 0 0 .002-11.585zM56.743 53.483L36.3 53.481l18.594-18.59 10.221 10.222z"/></symbol><symbol viewBox="0 0 100 100" id="feedback" xmlns="http://www.w3.org/2000/svg"><g transform="translate(4.9 4.766)"><path d="M45.099 4.458c-23.073 0-40.776 17.703-40.776 40.776 0 23.072 17.704 40.777 40.776 40.777 23.072 0 40.777-17.705 40.777-40.777 0-23.074-17.705-40.776-40.777-40.776zm0 76.721c-19.3 0-35.945-16.646-35.945-35.945C9.154 25.934 25.8 9.29 45.1 9.29s35.945 16.644 35.945 35.944c0 19.299-16.646 35.945-35.945 35.945z"/><circle cx="31.781" cy="36.963" r="4.033" stroke-width=".648"/><circle cx="57.006" cy="36.963" r="4.033" stroke-width=".648"/><path d="M64.518 53.716c-4.264 6.146-11.368 10.178-19.416 10.178-8.037 0-15.129-4.018-19.396-10.147l-3.743 2.692c5.104 7.294 13.56 12.072 23.14 12.072 9.67 0 18.192-4.87 23.282-12.282z"/></g></symbol><symbol viewBox="-9.5 5.5 100 100" id="filter" xmlns="http://www.w3.org/2000/svg"><path d="M50.5 80.5v-30l40-40h-100l40 40v50z"/></symbol><symbol viewBox="0 0 100 100" id="flag" xmlns="http://www.w3.org/2000/svg"><path d="M83.3 15.4c-1.1-.8-2.3-1-3.4-.7l-7.2 1.8c-7.4 1.9-15.1 1.5-22.3-1.2H50c-8-2.9-16.6-3.6-24.8-1.9l-2.1.4V7.4c0-2.2-1.8-4-4-4s-4 1.8-4 4v85.2c0 2.2 1.8 4 4 4s4-1.8 4-4V57.1l3.7-.7c6.7-1.3 13.9-.8 20.6 1.6l.3.1C53 60 58.3 61 63.5 61c3.9 0 7.6-.4 11.1-1.3l7.2-1.8c1.8-.4 3.1-2 3.1-3.9V18.6c0-1.3-.6-2.4-1.6-3.2z"/></symbol><symbol viewBox="0 0 100 100" id="folder" xmlns="http://www.w3.org/2000/svg"><path d="M97.722 23.267H45.711l-5.048-8.201c-.686-.963-1.458-2.277-3.29-2.277H2.279A2.276 2.276 0 0 0 0 15.066v70.077c0 1.143 1.019 2.068 2.277 2.068h95.444c1.26 0 2.278-.926 2.278-2.068v-59.81c0-1.142-1.019-2.066-2.278-2.066z"/></symbol><symbol viewBox="0 0 100 100" id="fragment" xmlns="http://www.w3.org/2000/svg"><path d="M97.5 50.527s-16.518 12.9-16.074 16.654c.409 3.41 6.604 2.568 10.21 5.982 8.534 8.089-4.427 19.675-12.32 13.019-.67-.568-2.124-2.509-2.814-4.223-.783-1.95-.681-6.34-3.52-6.686-3.49-.42-22.984 22.05-22.984 22.05s-19.774-15.65-20.607-18.158c-.919-2.756 4.075-3.063 6.532-4.01 1.686-.647 3.86-1.743 4.926-3.168 6.89-9.19-7.17-20.025-14.334-12.4-4.139 4.405-1.3 12.155-5.663 10.948C17.007 69.472 2.5 50.525 2.5 50.525S18.817 39.31 18.568 35.513c-.22-3.365-5.498-3.294-7.39-4.224-3.003-1.477-5.21-3.593-5.276-8.444-.144-10.448 14.075-11.193 17.592-2.46 1.086 2.695.642 5.784 3.169 6.33 3.887.845 23.335-24.039 23.335-24.039s20.035 17.29 20.057 20.052c.02 2.71-7.02 1.743-9.854 4.575-6.742 6.744-.094 20.036 11.409 13.91.98-.52 2.786-2.505 3.37-4.763.567-2.192.448-6.162 2.817-6.333 3.095-.223 19.703 20.41 19.703 20.41z" clip-rule="evenodd" fill-rule="evenodd"/></symbol><symbol viewBox="0 0 100 100" id="fx" xmlns="http://www.w3.org/2000/svg"><path d="M70.804 50.458l27.738 21.264-32.361-5.852 8.325 22.194-18.183-15.417-12.939 25.28-7.4-30.514-28.359 10.48 16.332-19.726L1.458 55.09l23.121-7.717L3.624 23.341l34.207 8.008 3.692-29.276L53.86 27.035 73.581 7.004l-7.704 26.509 30.515-1.233z"/></symbol><symbol viewBox="0 0 24 24" id="graph" xmlns="http://www.w3.org/2000/svg"><defs id="cidefs4"><style id="cistyle2">.cicls-1{fill-rule:evenodd}</style></defs><path class="cicls-1" d="M1163.46 251.089l-7.75 4.592a.981.981 0 0 1-.56.263.859.859 0 0 1-.88-.281l-4.27-4.228-4.28 4.246a1.018 1.018 0 0 1-1.43 0 1 1 0 0 1 0-1.414l4.99-4.95c.4-.39 1.04-.39 1.44 0l4.33 4.293 7.53-4.467a.917.917 0 0 1 1.33.444c.24.543.049 1.18-.45 1.502zM1164 262v2h-24v-24h2v22z" transform="translate(-1140 -240)" id="cipath6" fill-rule="evenodd"/></symbol><symbol viewBox="0 0 100 100" id="image" xmlns="http://www.w3.org/2000/svg"><g transform="matrix(4.25 0 0 4.25 -1 -1)"><path d="M2 4v16h20V4zm18 2v12h-.2l-6.1-5-2.2 1.8-3.1-2.9L4 15.2V6z"/><circle cx="16.6" cy="9.4" r="1.5"/></g></symbol><symbol viewBox="0 0 100 100" id="inspired" xmlns="http://www.w3.org/2000/svg"><path d="M50 11c-12.195 0-24 9.461-24 22.844 0 17.364 13 21 13 33.156h22c0-12.156 13-15.792 13-33.156C74 20.46 62.195 11 50 11zm-4.009 7.713c.162.913-.403 1.901-1.272 2.224a15.028 15.028 0 0 0-9.47 11.407c-.187 1.03-1.297 1.797-2.327 1.61-1.031-.19-1.798-1.298-1.61-2.329a18.938 18.938 0 0 1 11.969-14.406c1.143-.465 2.502.496 2.71 1.494zM39 71v4h22v-4zm0 8c0 2.298 1.89 4 4 4h14c2.11 0 4-1.702 4-4zm7 6c0 2.216 1.784 4 4 4s4-1.784 4-4z" style="marker:none" overflow="visible" color="#000"/></symbol><symbol viewBox="0 0 35 23" id="interp_0" xmlns="http://www.w3.org/2000/svg"><g transform="translate(0 -1029.362)" stroke-width="2"><path d="M5 1047.362l12.457-14.993L30 1047.362" fill="none" fill-rule="evenodd" stroke="#ccc"/><circle cx="17.5" cy="1032.693" r="2.5" fill="#ccc"/><circle r="2.5" cy="1048.862" cx="31.5" fill="#6b6b6b"/><circle cx="3.5" cy="1048.862" r="2.5" fill="#6b6b6b"/></g></symbol><symbol viewBox="0 0 35 23" id="interp_1" xmlns="http://www.w3.org/2000/svg"><g transform="translate(0 -1029.362)" stroke-width="2"><path d="M3.527 1048.847s4.364-16.62 13.93-16.51c9.653.112 14.06 16.51 14.06 16.51" fill="none" fill-rule="evenodd" stroke="#ccc"/><circle cx="17.5" cy="1032.693" r="2.5" fill="#ccc"/><circle r="2.5" cy="1048.862" cx="31.5" fill="#6b6b6b"/><circle cx="3.5" cy="1048.862" r="2.5" fill="#6b6b6b"/></g></symbol><symbol viewBox="0 0 100 100" id="keyframe" xmlns="http://www.w3.org/2000/svg"><path style="text-indent:0;text-transform:none;block-progression:tb" d="M5 50l1.406 1.406L50 95l45-45L50 5 5 50z" overflow="visible" color="#000"/></symbol><symbol viewBox="0 0 100 100" id="layers" xmlns="http://www.w3.org/2000/svg"><g transform="matrix(5 0 0 5 -2850 -3400)"><path d="M590 694l-2.882-1.441-7.118 3.559-7.118-3.559L570 694l10 5z"/><path d="M570 690l10 5 10-5-2.882-1.441-7.118 3.559-7.118-3.559z"/><path d="M590 686l-10-5-10 5 10 5z"/></g></symbol><symbol viewBox="0 0 100 100" id="like" xmlns="http://www.w3.org/2000/svg"><path d="M30.255 8.35c-7.136 0-14.272 2.744-19.624 8.096-10.841 10.842-10.841 28.545 0 39.386L47.684 90.69c.686.549 1.51.96 2.333.96.824 0 1.647-.274 2.333-.96l37.053-34.858C94.755 50.48 97.5 43.344 97.5 36.208c0-7.136-2.745-14.272-8.097-19.624-4.803-4.804-10.978-7-17.428-7-7.823 0-15.782 3.294-21.683 9.058l-.138.137s-.137 0-.137-.137C44.253 13.427 37.254 8.349 30.255 8.349z"/></symbol><symbol viewBox="0 0 100 100" id="link" xmlns="http://www.w3.org/2000/svg"><title>03</title><g data-name="Group"><path data-name="Path" d="M60.5 69.3l-7.1-7-18.6 18.6-15.7-15.7 18.6-18.6-7-7.1L4.9 65.2l29.9 29.9 25.7-25.8zM39.5 30.7l7.1 7 18.6-18.6 15.7 15.7-18.6 18.6 7 7.1 25.8-25.7L65.2 4.9 39.5 30.7z"/><path data-name="Path" d="M35.444 57.495l21.991-21.99 7.071 7.07-21.99 21.991z"/></g></symbol><symbol viewBox="0 0 100 100" id="load" xmlns="http://www.w3.org/2000/svg"><path d="M35.323 15l6.774 9.032h48.548V85H9.355V15z" fill-rule="nonzero"/></symbol><symbol viewBox="0 0 50 50" id="loading" xmlns="http://www.w3.org/2000/svg"><path fill="#495057" d="M43.935 25.145c0-10.318-8.364-18.683-18.683-18.683-10.318 0-18.683 8.365-18.683 18.683h4.068c0-8.071 6.543-14.615 14.615-14.615s14.615 6.543 14.615 14.615h4.068z"/></symbol><symbol viewBox="0 0 100 100" id="lock" xmlns="http://www.w3.org/2000/svg"><g transform="matrix(1.18734 0 0 1.18734 -6.992 -6.992)"><path d="M48 10.1c-11.343 0-20.571 9.228-20.571 20.571v10.493h6.965V30.671c0-7.502 6.104-13.606 13.606-13.606s13.606 6.104 13.606 13.606v10.493h6.965V30.671C68.571 19.328 59.343 10.1 48 10.1zM73.398 84.594V44.646c0-.72-.586-1.306-1.306-1.306H23.908c-.72 0-1.306.586-1.306 1.306v39.948c0 .72.586 1.306 1.306 1.306h48.185c.72 0 1.305-.586 1.305-1.306zM49.596 65.238c0 .88-.716 1.596-1.596 1.596-.88 0-1.596-.716-1.596-1.596v-4.941c0-.88.716-1.596 1.596-1.596.88 0 1.596.716 1.596 1.596z"/></g></symbol><symbol viewBox="0 0 100 100" id="loop" xmlns="http://www.w3.org/2000/svg"><path d="M56.64 14.749c-.234.115-.39.41-.39.878v7.812H10.937c-1.978 0-4.071.754-5.565 2.247-1.494 1.494-2.247 3.588-2.247 5.566v37.5c0 1.978.753 4.072 2.247 5.566 1.494 1.493 3.587 2.246 5.566 2.246h7.812V67.19H12.5V32.814h43.75v7.813c0 .937.644 1.21 1.269.587L73.73 29.105c.625-.625.625-1.328 0-1.953L57.52 15.042c-.313-.312-.644-.409-.878-.293zm24.61 8.69v9.375h6.25V67.19H43.75v-7.812c0-.938-.644-1.21-1.269-.588L26.27 70.9c-.625.625-.625 1.328 0 1.953l16.212 12.11c.625.624 1.269.352 1.269-.588V76.56h45.313c1.978 0 4.071-.753 5.565-2.247 1.494-1.493 2.247-3.587 2.247-5.565v-37.5c0-1.978-.753-4.072-2.247-5.566-1.494-1.494-3.587-2.247-5.566-2.247H81.25z"/></symbol><symbol viewBox="0 0 99.999997 99.999997" id="marker" xmlns="http://www.w3.org/2000/svg"><path d="M5 95V25L50 5l45 20v70z" fill="none" fill-rule="evenodd" stroke="#000"/></symbol><symbol viewBox="0 0 100 100" id="menu" xmlns="http://www.w3.org/2000/svg"><path d="M2.272 83.383h95.456v-6.358H2.271v6.358zm0-31.793h95.456v-6.359H2.271v6.359zm0-34.973v6.358h95.456v-6.358H2.271z" clip-rule="evenodd" fill-rule="evenodd"/></symbol><symbol viewBox="0 0 100 100" id="move" xmlns="http://www.w3.org/2000/svg"><svg viewBox="0 0 100 100" transform="matrix(.94444 0 0 .94444 2.778 2.778)"><path d="M43.573 56.427v19.282H30.719L50 95l19.281-19.291H56.427V56.427h19.282v12.854L95 50 75.709 30.719v12.854H56.427V24.291h12.854L50 5 30.719 24.291h12.854v19.282H24.291V30.719L5 50l19.291 19.281V56.427z"/></svg></symbol><symbol viewBox="0 0 100 100" id="music" xmlns="http://www.w3.org/2000/svg"><path d="M34.105 12.965v57.514c-3.324-1.452-7.45-1.802-11.467-.934C13.822 71.449 7.784 78.604 9.18 85.49 10.311 91.089 16.123 95 23.31 95c1.452 0 2.927-.158 4.383-.475 7.653-1.652 13.39-7.332 13.643-13.553l.018-53.694 42.416-6.357v41.9c-3.326-1.452-7.45-1.802-11.47-.935-8.812 1.905-14.85 9.06-13.458 15.946 1.134 5.601 6.945 9.512 14.131 9.512 1.452 0 2.927-.158 4.386-.475 7.65-1.654 13.39-7.335 13.643-13.553L91.022 5l-56.917 7.965z"/></symbol><symbol viewBox="0 0 100 100" id="mute" xmlns="http://www.w3.org/2000/svg"><path d="M76.664 5L44.7 31.247H23.336v37.5h21.349L76.647 95z"/></symbol><symbol viewBox="0 0 99.999998 100" id="new" xmlns="http://www.w3.org/2000/svg"><path d="M44.484 76.645V63.29l-9.446 9.446-9.447 9.446-3.886-3.887-3.887-3.886 9.446-9.447 9.446-9.446H10V44.484h26.71l-9.446-9.446-9.446-9.447 3.887-3.886 3.886-3.887 9.447 9.446 9.446 9.446V10h11.032v26.71l9.446-9.446 9.447-9.446 3.886 3.887 3.887 3.886-9.446 9.447-9.446 9.446H90v11.032H63.29l9.446 9.446 9.446 9.447-3.887 3.886-3.886 3.887-9.447-9.446-9.446-9.446V90H44.484z"/></symbol><symbol viewBox="0 0 100 100" id="newwindow" xmlns="http://www.w3.org/2000/svg"><svg viewBox="0 0 100 100" transform="matrix(.85 0 0 .85 7.5 7.5)"><path d="M100 0H25v25H0v75h75V75h25zM62.5 87.5h-50V50H25v25h37.5v12.5zm25-25h-50V25h50z"/></svg></symbol><symbol viewBox="0 0 100 100" id="nextframe" xmlns="http://www.w3.org/2000/svg"><g transform="matrix(5 0 0 4.72222 -30 -25.556)"><path d="M8.683 22.776h2.544V9.223H8.683zM13.31 9.343l10.007 6.716-10.006 6.717z"/></g></symbol><symbol viewBox="0 0 100 100" id="nextkf" xmlns="http://www.w3.org/2000/svg"><path style="text-indent:0;text-transform:none;block-progression:tb" d="M72.5 50l-1.406 1.406L27.5 95V5z" overflow="visible" color="#000"/></symbol><symbol viewBox="0 0 100 100" id="objects" xmlns="http://www.w3.org/2000/svg"><path d="M94.65 35.7c0-.1-.1-.2-.1-.3 0-.1-.1-.2-.1-.3 0-.1-.1-.2-.2-.3 0-.1-.1-.2-.1-.2-.1-.2-.2-.3-.4-.5L66.35 6.7c-.1-.1-.3-.3-.5-.4-.1 0-.1-.1-.2-.1-.1-.1-.2-.1-.3-.2-.1 0-.2-.1-.3-.1-.1 0-.2-.1-.3-.1-.2 0-.4-.1-.6-.1H7.55h-.1c-.2.2-.3.3-.4.3l-.6.3-.1.1-.3.3-.2.2c0 .1-.1.1-.2.2 0 .1-.1.2-.1.3 0 .1-.1.2-.1.3-.1.1-.1.2-.1.3 0 .1-.1.2-.1.3V64.6c0 .1.1.2.1.3 0 .1 0 .2.1.2l.1.1c.1.1.1.3.2.4l.1.1.3.3 28.5 27.5c.1 0 .1.1.2.1.1.1.2.2.3.2.1.1.2.1.3.1.1 0 .2.1.3.1.1 0 .2.1.3.1.1 0 .2.1.2.1.2 0 .4.1.6.1h55.1c.2 0 .4 0 .6-.1.1 0 .2-.1.3-.1.1 0 .2-.1.3-.1.1 0 .2-.1.3-.2-.2.1-.1.1-.1.1.3-.2.6-.5.8-.8 0-.1.1-.1.1-.2.1-.1.1-.2.2-.3 0-.1.1-.2.1-.3 0-.1.1-.2.1-.3 0-.2.1-.4.1-.6V36.3c0-.2 0-.4-.1-.6zM67.25 16l17.3 17.3h-17.3V16zm-33.6 68.3l-18-17.5h18.1v17.5zm0-23.5h-22.5V15.9l22.5 21.7v23.2zm-18-49h45.6v21.5h-23.4l-22.2-21.5zm45.6 27.5v21.5h-21.6V39.3h21.6zm-21.6 49.1V66.8h23.3l21.5 21.5h-44.8zm49.1-4.3l-21.5-21.5V39.3h21.5v44.8z"/></symbol><symbol viewBox="0 0 100 99.999999" id="open" xmlns="http://www.w3.org/2000/svg"><path d="M4.196 0A4.192 4.192 0 0 0 0 4.196v91.608A4.192 4.192 0 0 0 4.196 100h91.608A4.192 4.192 0 0 0 100 95.804V50.34a4.192 4.192 0 0 0-4.196-4.196 4.192 4.192 0 0 0-4.195 4.196v41.269H8.39V8.39h41.261a4.192 4.192 0 0 0 4.195-4.195A4.192 4.192 0 0 0 49.652 0H4.196zm66.753.017a4.192 4.192 0 0 0-4.195 4.195 4.195 4.195 0 0 0 4.195 4.196h14.723l-32.206 32.21a4.19 4.19 0 0 0 0 5.933 4.19 4.19 0 0 0 5.933 0l32.21-32.214v14.735a4.197 4.197 0 0 0 4.195 4.196c2.32 0 4.196-1.88 4.196-4.196V4.212A4.192 4.192 0 0 0 95.804.017H70.95z"/></symbol><symbol viewBox="0 0 100 100" id="panel" xmlns="http://www.w3.org/2000/svg"><g id="dgg14"><g transform="matrix(.69 0 0 .69 15.5 15.5)" id="dgg12"><svg viewBox="0 0 222 222" id="dgsvg10" clip-rule="evenodd" fill-rule="evenodd" shape-rendering="geometricPrecision" text-rendering="geometricPrecision" image-rendering="optimizeQuality"><defs id="dgdefs4"><style id="dgstyle2">.dgfil0{fill:#000;fill-rule:nonzero}</style></defs><g id="dgg8"><path class="dgfil0" d="M222 0v222H0V0h222zm-17 17H17v188h188V17z" id="dgpath6"/></g></svg></g></g></symbol><symbol viewBox="0 0 100 100" id="pause" xmlns="http://www.w3.org/2000/svg"><path d="M20 18v64h20V18H20zm40 0v64h20V18H60z"/></symbol><symbol viewBox="0 0 100 100" id="pauseframe" clip-rule="evenodd" fill-rule="evenodd" image-rendering="optimizeQuality" shape-rendering="geometricPrecision" text-rendering="geometricPrecision" xmlns="http://www.w3.org/2000/svg"><defs id="didefs4"><style id="distyle2">.difil0{fill:#000;fill-rule:nonzero}</style></defs><g id="dig8" transform="scale(.01)"><path class="difil0" d="M9500 500v9000H500V500zm-493 493H993v8014h8014zM4606 3647v2706h-789V3647zm1577 0v2706h-789V3647z" id="dipath6" fill-rule="nonzero"/></g></symbol><symbol viewBox="0 0 100 100" id="pc" xmlns="http://www.w3.org/2000/svg"><path d="M8.937 18C6 18 5 19 5 22v37.938C5.065 63.008 6 64 8.969 64h24.469L32 69c-4 0-14 1-14 6s10 7 21 7 21-2 21-7-10-6-14-6l-1.437-5h24.343C72 64 73 62.768 73 60V21.969c0-2.993-.995-3.97-4-3.969zm1.876 5H67c.524 0 1 .476 1 1v34c0 .524-.476 1-1 1H11c-.524 0-1-.476-1-1V24c-.01-.467.354-.913.813-1zM75 26v6c4.281-.013 11.281-.013 15.5.156 1.043.287 1.274.927 1.5 1.844v2c-.087 1.066-.655 1.438-1.5 1.844-4.219.143-10.29.156-15.5.156v2c4.281-.013 11.281-.013 15.5.156 1.043.287 1.274.927 1.5 1.844v2c-.087 1.066-.655 1.438-1.5 1.844-4.965.385-10.29.156-15.5.156v14c0 1.625-.273 3.21-1.437 4.406C72.398 65.603 70.718 66 68.906 66H67v10c2.12.236 4.296.407 6.5.531V78h15v-1.469c2.204-.124 4.38-.295 6.5-.531V26zm0 8v2c4.988-.17 10.281-.013 15-.094v-1.812C86.281 33.987 80.01 34 75 34zm0 8v2c5.281-.013 10.281-.013 15-.094v-1.812c-4.749-.23-9.99-.094-15-.094zm6 20a2 2 0 1 1 0 4 2 2 0 0 1 0-4z" style="marker:none" overflow="visible" color="#000"/></symbol><symbol viewBox="0 0 20 20" id="people" xmlns="http://www.w3.org/2000/svg"><style>.st0{fill:none;stroke:#000;stroke-miterlimit:10}</style><circle cx="13" cy="6.5" r="5"/><path d="M6 19.5c0-3.9 3.1-7 7-7s7 3.1 7 7M6 6.5c0 .7.1 1.4.3 2H6c-2.2 0-4-1.8-4-4s1.8-4 4-4c.9 0 1.7.3 2.4.8C6.9 2.5 6 4.4 6 6.5zM8.4 11.8c-1.5.9-2.7 2.2-3.4 3.7H0c0-3.3 2.7-6 6-6h.7c.4.9 1 1.7 1.7 2.3z"/></symbol><symbol viewBox="0 0 24 24" id="pin" xmlns="http://www.w3.org/2000/svg"><path d="M12.354 3.161l-1.415 1.414 1.415 1.414-4.95 4.95 5.657 5.657 4.95-4.95 1.414 1.415 1.414-1.415zm.707 13.435c-1.883-1.888-3.775-3.768-5.657-5.657a3 3 0 0 0-4.243 0l4.243 4.243-4.243 4.243v1.414h1.414l4.243-4.243 4.243 4.243a3 3 0 0 0 0-4.243z"/></symbol><symbol viewBox="0 0 100 100" id="play" xmlns="http://www.w3.org/2000/svg"><path d="M14 86l72-36-72-36z"/></symbol><symbol viewBox="0 0 100 100" id="prevframe" xmlns="http://www.w3.org/2000/svg"><g transform="matrix(5 0 0 4.72222 -30 -25.556)"><path d="M23.317 22.776h-2.544V9.223h2.544zM8.683 16.06l10.006 6.716V9.343z"/></g></symbol><symbol viewBox="0 0 100 100" id="prevkf" xmlns="http://www.w3.org/2000/svg"><path style="text-indent:0;text-transform:none;block-progression:tb" d="M27.5 50l1.406 1.406L72.5 95V5z" overflow="visible" color="#000"/></symbol><symbol viewBox="0 0 100 100" id="project" xmlns="http://www.w3.org/2000/svg"><path d="M97.722 23.267H45.711l-5.048-8.201c-.686-.963-1.458-2.277-3.29-2.277H2.279A2.276 2.276 0 0 0 0 15.066v70.077c0 1.143 1.019 2.068 2.277 2.068h95.444c1.26 0 2.278-.926 2.278-2.068v-59.81c0-1.142-1.019-2.066-2.278-2.066z"/></symbol><symbol viewBox="0 0 100 100" id="random" xmlns="http://www.w3.org/2000/svg"><g transform="translate(-.887 -.41) scale(1.357)"><path d="M32.105 3.676H5.992a3.498 3.498 0 0 0-3.496 3.496v26.11c0 1.933 1.566 3.5 3.496 3.5h26.113a3.498 3.498 0 0 0 3.497-3.5V7.171a3.495 3.495 0 0 0-3.497-3.496zM10.547 14.914a3.188 3.188 0 1 1 .002-6.377 3.188 3.188 0 0 1-.002 6.377zm8.504 8.5a3.19 3.19 0 0 1-3.192-3.187 3.188 3.188 0 1 1 3.191 3.188zm8.504 8.504a3.19 3.19 0 1 1-.005-6.378 3.19 3.19 0 0 1 .005 6.378zm0 0M70.25 39.457l-24.398-9.3a3.496 3.496 0 0 0-4.512 2.023l-9.3 24.398a3.498 3.498 0 0 0 2.023 4.512l24.398 9.3a3.498 3.498 0 0 0 4.512-2.023l9.3-24.398a3.496 3.496 0 0 0-2.023-4.512zM39.973 58.141a3.192 3.192 0 0 1-1.844-4.118 3.194 3.194 0 0 1 4.117-1.843 3.19 3.19 0 0 1-2.273 5.96zm1.183-12.059a3.19 3.19 0 1 1 5.964 2.267 3.19 3.19 0 0 1-5.964-2.267zm4.871-3.828a3.188 3.188 0 1 1 2.27-5.96 3.19 3.19 0 0 1-2.27 5.96zm9.985 22a3.192 3.192 0 0 1 2.27-5.965 3.19 3.19 0 0 1 1.843 4.117 3.184 3.184 0 0 1-4.113 1.848zm3.027-7.942a3.19 3.19 0 0 1-1.844-4.117 3.184 3.184 0 0 1 4.114-1.847 3.192 3.192 0 0 1 1.847 4.117 3.196 3.196 0 0 1-4.117 1.847zm3.031-7.949a3.182 3.182 0 0 1-1.843-4.113 3.182 3.182 0 0 1 4.113-1.844 3.189 3.189 0 0 1 1.844 4.114 3.185 3.185 0 0 1-4.114 1.843zm0 0"/></g></symbol><symbol viewBox="0 0 100 100" id="record" xmlns="http://www.w3.org/2000/svg"><path d="M50 9.5c22.32 0 40.5 18.09 40.5 40.5 0 22.32-18.09 40.5-40.5 40.5S9.5 72.32 9.5 50 27.68 9.5 50 9.5" clip-rule="evenodd" fill-rule="evenodd"/></symbol><symbol viewBox="0 0 100 100" id="redo" xmlns="http://www.w3.org/2000/svg"><title>Combined Shape</title><path d="M47.154 39.678c-12.361 2.368-16.99 8.541-17.073 21.58-.053 8.479 2.928 13.095 8.117 15.543 3.017 1.423 6.263 1.884 8.614 1.811l.676 11.363c-.106.006-.106.006-.327.014-1.345.042-3.062-.033-5.034-.313-2.988-.425-5.959-1.247-8.785-2.58-9.152-4.318-14.725-12.948-14.643-25.91.128-20.44 9.305-29.94 28.455-32.976V10l34.148 22.765L47.154 55.53z" fill-rule="evenodd"/></symbol><symbol viewBox="0 0 100 100" id="remove" xmlns="http://www.w3.org/2000/svg"><path d="M50 40.857L16.144 7 7 16.143 40.856 50 7 83.857l9.07 9.07L49.927 59.07 83.857 93 93 83.857l-33.93-33.93L92.927 16.07 83.857 7z" stroke-width="1.147"/></symbol><symbol viewBox="0 0 100 100" id="reset" xmlns="http://www.w3.org/2000/svg"><switch transform="rotate(-180 50 50)"><g><path d="M14.4 64.4l11.3-6.7c-2.4-4.1-3.7-8.9-3.7-14 0-15.5 12.6-28 28-28s28 12.6 28 28-12.6 28-28 28V59L19.3 78.3 50 97.5V84.8c22.7 0 41.2-18.5 41.2-41.2C91.2 21 72.7 2.5 50 2.5 27.3 2.5 8.8 21 8.8 43.7c0 7.5 2.1 14.6 5.6 20.7z"/></g></switch></symbol><symbol viewBox="0 0 100 100" id="save" xmlns="http://www.w3.org/2000/svg"><path d="M57 52V10H43v42H26l24.2 25.854-35.8.053V90h71.2l.3-12.146h-35L74 52z"/></symbol><symbol viewBox="-7.125 -7.328 100 99.999999" id="scene" xmlns="http://www.w3.org/2000/svg"><path d="M52.597 52.87L22.042 12.055-7.125 73.287h100L67.879 40.628zM80.375 13.412c5.366 0 9.722 4.27 9.722 9.531 0 5.262-4.355 9.524-9.722 9.524-5.374 0-9.718-4.261-9.718-9.523s4.344-9.532 9.718-9.532z"/></symbol><symbol viewBox="0 0 100 100" id="search" xmlns="http://www.w3.org/2000/svg"><title>se1</title><path d="M39.23 78.46a39.23 39.23 0 1 1 39-39.23 39.17 39.17 0 0 1-39 39.23zm0-63a23.8 23.8 0 1 0 23.59 23.77 23.71 23.71 0 0 0-23.59-23.8z"/><path d="M56.045 66.85L66.94 55.908l33.289 33.15-10.895 10.94z"/></symbol><symbol viewBox="0 0 100 100" id="sequence" xmlns="http://www.w3.org/2000/svg"><path d="M2 24.5v51h3v-51H2zm93 0v51h3v-51h-3zm-84 6v9h27v-9H11zm15 15v9h42v-9H26zm30 15v9h33v-9H56z"/></symbol><symbol viewBox="0 0 100 100" id="settings" xmlns="http://www.w3.org/2000/svg"><title>Artboard 49</title><path d="M42.102 10.088L38.09 20.4a2.38 2.38 0 0 1-1.19 1.297 31.103 31.103 0 0 0-4.764 2.75 2.38 2.38 0 0 1-1.726.418L19.396 23.21l-7.893 13.692 6.81 8.538a2.38 2.38 0 0 1 .5 1.726c-.083.941-.132 1.881-.132 2.846 0 .964.001 1.893.144 2.834a2.38 2.38 0 0 1-.5 1.737l-6.822 8.515 7.857 13.704 10.918-1.655a2.384 2.384 0 0 1 1.728.417 31.08 31.08 0 0 0 4.763 2.762 2.38 2.38 0 0 1 1.19 1.298l4.037 10.288h15.787l4.12-10.503a2.38 2.38 0 0 1 1.19-1.286 31.105 31.105 0 0 0 4.453-2.595c.5-.356 1.12-.505 1.728-.416l11.192 1.69 8.025-13.704-7.12-8.92a2.38 2.38 0 0 1-.512-1.702c.095-.821.095-1.643.095-2.476s0-1.643-.107-2.453a2.38 2.38 0 0 1 .512-1.714l7.144-8.943-7.86-13.704-11.203 1.69a2.38 2.38 0 0 1-1.738-.416 31.106 31.106 0 0 0-4.43-2.595 2.38 2.38 0 0 1-1.19-1.274l-4.12-10.503zM50 35.486c8.016 0 14.514 6.498 14.514 14.514 0 8.016-6.498 14.513-14.514 14.514-8.015 0-14.513-6.498-14.513-14.514 0-8.016 6.498-14.513 14.513-14.514z" stroke-width=".885" data-name="Layer 2"/></symbol><symbol viewBox="0 0 100 100" id="shape" xmlns="http://www.w3.org/2000/svg"><title>shape</title><path d="M55.79 34.908a26.483 26.483 0 0 1 10.148-2.007c14.67 0 26.562 11.892 26.562 26.562 0 14.67-11.892 26.563-26.562 26.563-9.694 0-18.175-5.193-22.813-12.948h34.189c.282 0 .393-.207.246-.461L55.79 34.908zm-16.175-20.76L71.192 68.86c.132.23.032.415-.222.415H7.782c-.255 0-.358-.18-.222-.415l31.576-54.712c.133-.229.344-.235.48 0z" fill-rule="evenodd"/></symbol><symbol viewBox="0 0 100 100" id="shield" xmlns="http://www.w3.org/2000/svg"><path d="M49.746 3.244l-36.102 6.64v51.803c0 3.987 1.786 8.293 5.318 12.804 3.131 3.99 7.564 8.076 13.174 12.146 7.004 5.063 14.144 8.834 17.61 10.551 3.472-1.717 10.612-5.487 17.614-10.551 5.614-4.069 10.039-8.155 13.168-12.146 3.535-4.516 5.327-8.816 5.327-12.804V9.884l-36.109-6.64z"/></symbol><symbol viewBox="0 0 100 100" id="slow" xmlns="http://www.w3.org/2000/svg"><g transform="translate(12.5 12.5) scale(1.5625)"><path d="M48 23.948L17.058.461v47.078zM0 0h9.208v48H0z"/></g></symbol><symbol viewBox="0 0 100 100" id="split" xmlns="http://www.w3.org/2000/svg"><g transform="translate(0 2)"><path d="M15 28h15v40H15zM45 6h10v84H45zM70 28h15v40H70z"/></g></symbol><symbol viewBox="0 0 100 100" id="start" xmlns="http://www.w3.org/2000/svg"><g transform="matrix(5 0 0 4.72222 -30 -25.556)"><path d="M9.718 22.776h2.544V9.223H9.718zM22.282 22.776V9.343l-10.007 6.716z"/></g></symbol><symbol viewBox="0 0 100 100" id="stopwatch" xmlns="http://www.w3.org/2000/svg"><path d="M93.1 25c.8.8.8 2 0 2.8l-6 6c-.8.8-2 .8-2.8 0l-1.6-1.6-3.4 3.4c4.4 6.4 7 14.2 7 22.6 0 22.1-17.9 40-40 40s-40-17.9-40-40c0-19.6 14.1-35.9 32.7-39.4V14h-2.2c-1.1 0-2-.9-2-2V3.7c0-1.1.9-2 2-2H56c1.1 0 2 .9 2 2v8.4c0 1.1-.9 2-2 2h-2.2v4.8c5.6 1 10.8 3.2 15.3 6.3l3.4-3.4-1.6-1.6c-.8-.8-.8-2 0-2.8l6-6c.8-.8 2-.8 2.8 0L93.1 25z" fill="#ccc"/><path d="M73.9 58.2c0-15.2-12.3-27.5-27.5-27.5S18.9 43 18.9 58.2s12.3 27.5 27.5 27.5c15.2.1 27.5-12.3 27.5-27.5z" fill="none"/><circle cx="46.176" cy="57.924" r="30"/></symbol><symbol viewBox="0 0 16.933334 16.933333" id="templates" xmlns="http://www.w3.org/2000/svg"><path d="M1.984 1.985V4.629h2.647V1.985zm3.44 0V4.629H8.07V1.985zm3.439 0V4.629h2.647V1.985zm3.44 0V4.629h2.646V1.985zM1.984 5.425V8.07h2.647V5.424zm3.44 0V8.07H8.07V5.424zm3.439 0V8.07h2.647V5.424zm3.44 0V8.07h2.646V5.424zM1.984 8.863v2.646h2.647V8.864zm3.44 0v2.646H8.07V8.864zm3.439 0v2.646h2.647V8.864zm3.44 0v2.646h2.646V8.864zm-10.319 3.44v2.645h2.647v-2.646zm3.44 0v2.645H8.07v-2.646zm3.439 0v2.645h2.647v-2.646zm3.44 0v2.645h2.646v-2.646z" style="line-height:normal;font-variant-ligatures:normal;font-variant-position:normal;font-variant-caps:normal;font-variant-numeric:normal;font-variant-alternates:normal;font-feature-settings:normal;text-indent:0;text-align:start;text-decoration-line:none;text-decoration-style:solid;text-decoration-color:#000;text-transform:none;text-orientation:mixed;shape-padding:0;isolation:auto;mix-blend-mode:normal" color="#000" font-weight="400" font-family="sans-serif" white-space="normal" overflow="visible" fill-rule="evenodd" stroke-width="2" paint-order="fill markers stroke"/></symbol><symbol viewBox="0 0 100 100" id="text" xmlns="http://www.w3.org/2000/svg"><path d="M86 14H14v18h27v54h18V32h27z"/></symbol><symbol preserveAspectRatio="none" viewBox="0 0 100 100" id="transform" xmlns="http://www.w3.org/2000/svg"><defs><path d="M87 25h8V5H75v8H25V5H5v20h8v50H5v20h20v-8h50v8h20V75h-8V25m-4 0v50h-8v8H25v-8h-8V25h8v-8h50v8h8z" id="eia"/></defs><use xlink:href="#eia" width="100%" height="100%" transform="matrix(.81 0 0 .81 9.5 9.5)"/></symbol><symbol viewBox="0 0 100 100" id="tree" xmlns="http://www.w3.org/2000/svg"><path fill-rule="evenodd" clip-rule="evenodd" d="M96.42 62.703c0-.489-.187-.979-.56-1.353l-7.519-7.519a1.908 1.908 0 0 0-1.366-.573h-22.14a1.915 1.915 0 0 0-1.915 1.916V69.12c0 1.058.858 1.914 1.915 1.914h29.671a1.915 1.915 0 0 0 1.916-1.914v-6.417h-.002zm-3.829 4.502H66.75V57.089h19.434l6.407 6.408v3.708zM51.354 13.09l-7.519-7.519A1.91 1.91 0 0 0 42.47 5H5.494a1.915 1.915 0 0 0-1.916 1.914V20.86c0 1.058.857 1.915 1.916 1.915H50a1.915 1.915 0 0 0 1.915-1.915v-6.417c0-.49-.187-.979-.561-1.353zm-3.269 5.855H7.409V8.829h34.268l6.408 6.407v3.709zM35.164 29.407h22.142c.534 0 1.019.22 1.365.573l7.518 7.518c.375.374.562.864.562 1.354v6.416a1.915 1.915 0 0 1-1.915 1.915H35.164a1.915 1.915 0 0 1-1.915-1.915V31.322c0-1.057.857-1.915 1.915-1.915zM35.164 77.223h51.812c.535 0 1.019.22 1.366.573l7.519 7.519c.373.373.56.863.56 1.354h.002v6.416a1.916 1.916 0 0 1-1.916 1.916H35.164a1.915 1.915 0 0 1-1.915-1.916V79.139c0-1.059.857-1.916 1.915-1.916z"/></symbol><symbol viewBox="0 0 100 100" id="undo" xmlns="http://www.w3.org/2000/svg"><title>Combined Shape</title><path d="M50 27.519c23.029 2.03 34.007 11.298 34.147 33.667.082 12.963-5.491 21.593-14.643 25.91-2.826 1.333-5.797 2.155-8.785 2.58-1.972.28-3.69.355-5.034.313-.221-.008-.221-.008-.327-.014 0 0 .628-11.365.683-11.363 2.344.073 5.59-.388 8.607-1.811 5.19-2.448 8.17-7.064 8.117-15.544C72.67 46.383 66.659 40.444 50 38.895V55.53L15.852 32.765 50 10z" fill-rule="evenodd"/></symbol><symbol viewBox="0 0 100 100" id="unknown" xmlns="http://www.w3.org/2000/svg"><path d="M50 26c-6.75 0-11.135 2.895-13.124 6.375C34.886 35.855 35 39.5 35 41h6c0-1.5.114-3.855 1.125-5.625C43.136 33.605 44.75 32 50 32c3.999 0 6.222.996 7.407 2.064C58.593 35.132 59 36.419 59 38.003c0 5.001-1.968 6.375-4.968 9S47 53.504 47 60.503v1.5h6v-1.5c0-5.001 1.968-6.375 4.968-9S65 45.002 65 38.003c0-2.916-1.092-6.129-3.657-8.439C58.779 27.257 54.999 26 50 26zm-3 42v6h6v-6h-6z"/></symbol><symbol viewBox="0 0 100 100" id="unlink" xmlns="http://www.w3.org/2000/svg"><g data-name="Group"><path data-name="Path" d="M60.5 69.3l-7.1-7-18.6 18.6-15.7-15.7 18.6-18.6-7-7.1L4.9 65.2l29.9 29.9 25.7-25.8zM39.5 30.7l7.1 7 18.6-18.6 15.7 15.7-18.6 18.6 7 7.1 25.8-25.7L65.2 4.9 39.5 30.7zM73.3 73.3h19.1v-9.9h-29v29h9.9V73.3zM38.1 9h-10v19.1H9v10h29.1V9z"/></g></symbol><symbol viewBox="0 0 100 100" id="upload" xmlns="http://www.w3.org/2000/svg"><g transform="translate(5 5) scale(5.625)"><path d="M0 .133v2h16v-2z" stroke-width=".178"/><path d="M8 2.084l-4.444 5.33h2.963v7.993H9.48V7.413h2.963z"/></g></symbol><symbol viewBox="-13.05 8.347 100 100" id="visible" xmlns="http://www.w3.org/2000/svg"><path d="M86.95 58.411S66.82 93.155 36.947 93.155-13.05 58.411-13.05 58.411 7.074 23.538 36.947 23.538c29.872 0 50.003 34.873 50.003 34.873zm-25.515 0c0-13.46-11.027-24.486-24.488-24.486-13.46 0-24.488 11.025-24.488 24.487 0 13.463 11.027 24.488 24.488 24.488S61.435 71.874 61.435 58.41zM36.947 47.387c-6.024 0-10.898 5.127-10.898 11.024A10.89 10.89 0 0 0 36.947 69.31c5.9 0 11.026-4.871 11.026-10.897 0-5.897-5.126-11.024-11.026-11.024z"/></symbol><symbol viewBox="0 0 99.999999 99.999998" id="wave" xmlns="http://www.w3.org/2000/svg"><g transform="matrix(.28 0 0 .28 -8.912 9.148)"><path d="M48.4 129.2c-3.3 0-6 2.7-6 6v21.5c0 3.3 2.7 6 6 6s6-2.7 6-6v-21.5c0-3.4-2.7-6-6-6zM70 113.8c-3.3 0-6 2.7-6 6V172c0 3.3 2.7 6 6 6s6-2.7 6-6v-52.2c0-3.3-2.7-6-6-6zM91.6 95.8c-3.3 0-6 2.7-6 6V190c0 3.3 2.7 6 6 6s6-2.7 6-6v-88.2c0-3.3-2.7-6-6-6zM113.2 71.8c-3.3 0-6 2.7-6 6V214c0 3.3 2.7 6 6 6s6-2.7 6-6V77.8c0-3.3-2.7-6-6-6zM134.8 51.8c-3.3 0-6 2.7-6 6V234c0 3.3 2.7 6 6 6s6-2.7 6-6V57.8c0-3.3-2.7-6-6-6zM156.4 72.1c-3.2 0-5.8 2.6-5.8 5.8V214c0 3.2 2.6 5.8 5.8 5.8 3.2 0 5.8-2.6 5.8-5.8V77.8c0-3.2-2.6-5.7-5.8-5.7zM178 86.5c-3.5 0-6.3 2.8-6.3 6.3V199c0 3.5 2.8 6.3 6.3 6.3s6.3-2.8 6.3-6.3V92.8c0-3.5-2.8-6.3-6.3-6.3zM199.6 52.1c-3.1 0-5.7 2.5-5.7 5.7V234c0 3.1 2.5 5.7 5.7 5.7s5.7-2.5 5.7-5.7V57.8c0-3.1-2.6-5.7-5.7-5.7zM221.2 26.8c-3.3 0-6 2.7-6 6V259c0 3.3 2.7 6 6 6s6-2.7 6-6V32.8c0-3.3-2.7-6-6-6zM242.8 41.8c-3.3 0-6 2.7-6 6V244c0 3.3 2.7 6 6 6s6-2.7 6-6V47.8c0-3.3-2.7-6-6-6zM264.4 65.8c-3.3 0-6 2.7-6 6V220c0 3.3 2.7 6 6 6s6-2.7 6-6V71.8c0-3.3-2.7-6-6-6zM286 86.8c-3.3 0-6 2.7-6 6V199c0 3.3 2.7 6 6 6s6-2.7 6-6V92.8c0-3.3-2.7-6-6-6zM307.6 113.8c-3.3 0-6 2.7-6 6V172c0 3.3 2.7 6 6 6s6-2.7 6-6v-52.2c0-3.3-2.7-6-6-6zM329.2 91.8c-3.3 0-6 2.7-6 6V194c0 3.3 2.7 6 6 6s6-2.7 6-6V97.8c0-3.3-2.7-6-6-6zM350.8 113.8c-3.3 0-6 2.7-6 6V172c0 3.3 2.7 6 6 6s6-2.7 6-6v-52.2c0-3.3-2.7-6-6-6zM372.4 129.2c-3.3 0-6 2.7-6 6v21.5c0 3.3 2.7 6 6 6s6-2.7 6-6v-21.5c0-3.4-2.7-6-6-6z"/></g></symbol><symbol viewBox="0 0 100 100" id="zoomin" xmlns="http://www.w3.org/2000/svg"><path d="M90 50c0-18.856-17.91-40-40-40-22.091 0-40 17.909-40 40s21.144 40 40 40 40-21.144 40-40zM50 78.571c-15.754 0-28.571-12.817-28.571-28.571 0-15.754 12.817-28.571 28.571-28.571 15.754 0 28.571 12.817 28.571 28.571 0 15.754-12.817 28.571-28.571 28.571z"/><path d="M67.143 44.286H55.714V32.857H44.286v11.429H32.857v11.428h11.429v11.429h11.428V55.714h11.429z"/></symbol><symbol viewBox="0 0 100 100" id="zoomout" xmlns="http://www.w3.org/2000/svg"><path d="M90 50c0-18.856-17.909-40-40-40S10 27.909 10 50s21.144 40 40 40 40-21.144 40-40zM50 78.571c-15.754 0-28.571-12.817-28.571-28.571 0-15.754 12.817-28.571 28.571-28.571 15.754 0 28.571 12.817 28.571 28.571 0 15.754-12.817 28.571-28.571 28.571z"/><path d="M32.857 44.286h34.286v11.429H32.857z"/></symbol></svg>